<svg width="128" height="142" viewBox="0 0 128 142" fill="none" xmlns="http://www.w3.org/2000/svg">
<path d="M119.65 116.09H8.35C5.95 116.09 4 114.14 4 111.74V44.2799C4 41.8699 5.95 39.9099 8.37 39.9099H119.64C122.05 39.9099 124.01 41.8599 124.01 44.2799V111.74C124 114.14 122.05 116.09 119.65 116.09Z" fill="#2E7D32"/>
<path d="M119.78 103.91H8.22C5.89 103.91 4 102.02 4 99.6899V44.2799C4 41.8699 5.95 39.9099 8.37 39.9099H119.64C122.05 39.9099 124.01 41.8599 124.01 44.2799V99.6899C124 102.02 122.11 103.91 119.78 103.91Z" fill="#66BB6A"/>
<path d="M39.68 79.3699C39.68 78.1399 39.25 77.0999 38.39 76.2599C37.53 75.4199 36.07 74.6499 34.02 73.9699C31.17 73.0999 29.09 71.9699 27.79 70.5699C26.48 69.1699 25.83 67.3899 25.83 65.2399C25.83 63.0399 26.47 61.2399 27.75 59.8399C29.03 58.4299 30.79 57.5999 33.02 57.3299V53.8599C33.02 53.3499 33.44 52.9299 33.95 52.9299H35.08C35.59 52.9299 36.01 53.3499 36.01 53.8599V57.3499C38.26 57.6599 40.01 58.5999 41.26 60.1799C42.38 61.5999 43 63.4799 43.12 65.8299C43.14 66.2899 42.76 66.6699 42.3 66.6699H40.23C39.79 66.6699 39.45 66.3199 39.41 65.8799C39.3 64.3499 38.86 63.1099 38.09 62.1599C37.19 61.0499 35.98 60.4899 34.46 60.4899C32.87 60.4899 31.65 60.8999 30.81 61.7299C29.97 62.5499 29.54 63.7099 29.54 65.1799C29.54 66.5499 29.99 67.6399 30.88 68.4499C31.77 69.2599 33.24 69.9999 35.28 70.6599C37.32 71.3199 38.91 72.0499 40.06 72.8499C41.2 73.6499 42.05 74.5699 42.59 75.6299C43.13 76.6899 43.4 77.9299 43.4 79.3499C43.4 81.6099 42.72 83.4299 41.36 84.8099C40 86.1899 38.1 87.0099 35.65 87.2599V90.1599C35.65 90.6699 35.23 91.0899 34.72 91.0899H33.6C33.09 91.0899 32.67 90.6699 32.67 90.1599V87.2599C30.18 87.0299 28.23 86.1499 26.82 84.5999C25.56 83.2199 24.86 81.3999 24.73 79.1499C24.7 78.6899 25.09 78.3099 25.55 78.3099H27.64C28.06 78.3099 28.42 78.6199 28.45 79.0399C28.56 80.5499 29.04 81.7399 29.89 82.6099C30.87 83.6099 32.25 84.1199 34.05 84.1199C35.8 84.1199 37.18 83.6999 38.19 82.8499C39.18 81.9799 39.68 80.8299 39.68 79.3699Z" fill="white"/>
<path d="M35.64 88.0899L32.67 87.2399L33.01 57.4199V56.4099L36 57.3399L35.64 87.2199V88.0899Z" fill="white"/>
<path opacity="0.5" d="M84.78 90.4099C94.9973 90.4099 103.28 82.1272 103.28 71.9099C103.28 61.6926 94.9973 53.4099 84.78 53.4099C74.5628 53.4099 66.28 61.6926 66.28 71.9099C66.28 82.1272 74.5628 90.4099 84.78 90.4099Z" fill="#2E7D32"/>
<path d="M106.45 47.0999C107.31 52.4999 111.59 56.7799 116.99 57.6399V86.1799C111.59 87.0399 107.31 91.3199 106.45 96.7199H21.42C20.32 91.6099 16.16 87.6699 11 86.8499V58.3099C16.63 57.4199 21.03 52.8199 21.63 47.0999H106.45ZM108.29 45.0999H19.69C19.7 45.3199 19.71 45.5399 19.71 45.7699C19.71 51.6799 14.92 56.4699 9.01001 56.4699V88.6999C14.69 88.6999 19.34 93.1299 19.69 98.7299H108.3C108.3 92.8199 113.09 88.0299 119 88.0299V55.7999C113.08 55.7999 108.29 51.0099 108.29 45.0999Z" fill="#2E7D32"/>
<path d="M75.01 39.9099H53V116.09H75.01V39.9099Z" fill="#FFECB3"/>
<path d="M75.01 103.91H53V116.09H75.01V103.91Z" fill="#FFC06C"/>
<path d="M99 21L78.75 34.8564L78.75 7.14359L99 21Z" fill="#F96E6E"/>
<rect x="83" y="16" width="9" height="47" transform="rotate(90 83 16)" fill="#F96E6E"/>
</svg>
