<svg width="128" height="150" viewBox="0 0 128 150" fill="none" xmlns="http://www.w3.org/2000/svg">
<path d="M112.933 74.1747H32.0668C30.323 74.1747 28.9062 72.7579 28.9062 71.0142V22.0003C28.9062 20.2493 30.323 18.8252 32.0813 18.8252H112.926C114.677 18.8252 116.101 20.242 116.101 22.0003V71.0142C116.094 72.7579 114.677 74.1747 112.933 74.1747Z" fill="#2E7D32"/>
<path d="M113.028 65.3252H31.9723C30.2795 65.3252 28.9062 63.952 28.9062 62.2591V22.0003C28.9062 20.2493 30.323 18.8252 32.0813 18.8252H112.926C114.677 18.8252 116.101 20.242 116.101 22.0003V62.2591C116.094 63.952 114.721 65.3252 113.028 65.3252Z" fill="#66BB6A"/>
<path d="M54.83 47.4955C54.83 46.6018 54.5176 45.8462 53.8928 45.2359C53.2679 44.6255 52.2071 44.0661 50.7177 43.572C48.647 42.9399 47.1357 42.1189 46.1912 41.1017C45.2394 40.0845 44.7671 38.7913 44.7671 37.2291C44.7671 35.6307 45.2321 34.3229 46.1621 33.3057C47.0921 32.2812 48.3709 31.6782 49.9911 31.482V28.9609C49.9911 28.5903 50.2963 28.2852 50.6668 28.2852H51.4878C51.8584 28.2852 52.1635 28.5903 52.1635 28.9609V31.4966C53.7983 31.7218 55.0698 32.4048 55.978 33.5527C56.7917 34.5845 57.2422 35.9504 57.3294 37.6578C57.3439 37.992 57.0678 38.2681 56.7336 38.2681H55.2296C54.9099 38.2681 54.6629 38.0138 54.6339 37.6941C54.5539 36.5825 54.2342 35.6816 53.6748 34.9913C53.0209 34.1848 52.1417 33.778 51.0374 33.778C49.8821 33.778 48.9957 34.0759 48.3854 34.6789C47.7751 35.2747 47.4627 36.1175 47.4627 37.1855C47.4627 38.1809 47.7896 38.9729 48.4363 39.5614C49.0829 40.1499 50.151 40.6876 51.6331 41.1671C53.1153 41.6466 54.2706 42.177 55.1061 42.7583C55.9344 43.3395 56.552 44.008 56.9443 44.7781C57.3367 45.5483 57.5328 46.4492 57.5328 47.4809C57.5328 49.123 57.0388 50.4453 56.0507 51.448C55.0625 52.4506 53.6821 53.0464 51.902 53.228V55.3351C51.902 55.7056 51.5968 56.0108 51.2263 56.0108H50.4125C50.042 56.0108 49.7368 55.7056 49.7368 55.3351V53.228C47.9277 53.0609 46.5109 52.4216 45.4864 51.2954C44.571 50.2927 44.0624 48.9704 43.9679 47.3356C43.9461 47.0014 44.2295 46.7253 44.5637 46.7253H46.0822C46.3874 46.7253 46.6489 46.9505 46.6707 47.2557C46.7507 48.3528 47.0994 49.2174 47.717 49.8495C48.429 50.5761 49.4317 50.9466 50.7395 50.9466C52.011 50.9466 53.0136 50.6415 53.7474 50.0239C54.4667 49.3918 54.83 48.5563 54.83 47.4955Z" fill="white"/>
<path d="M51.8947 53.831L49.7368 53.2134L49.9838 31.5473V30.8135L52.1563 31.4892L51.8947 53.1989V53.831Z" fill="white"/>
<path opacity="0.5" d="M87.598 55.5166C95.0214 55.5166 101.039 49.4987 101.039 42.0752C101.039 34.6517 95.0214 28.6338 87.598 28.6338C80.1745 28.6338 74.1566 34.6517 74.1566 42.0752C74.1566 49.4987 80.1745 55.5166 87.598 55.5166Z" fill="#2E7D32"/>
<path d="M103.343 24.0491C103.967 27.9725 107.077 31.0822 111.001 31.707V52.4431C107.077 53.068 103.967 56.1777 103.343 60.1011H41.563C40.7637 56.3884 37.7412 53.5257 33.9922 52.9299V32.1938C38.0827 31.5472 41.2796 28.205 41.7155 24.0491H103.343ZM104.679 22.5959H40.306C40.3133 22.7558 40.3205 22.9156 40.3205 23.0827C40.3205 27.3767 36.8403 30.857 32.5463 30.857V54.2741C36.6732 54.2741 40.0517 57.4928 40.306 61.5615H104.687C104.687 57.2675 108.167 53.7873 112.461 53.7873V30.3702C108.16 30.3702 104.679 26.8899 104.679 22.5959Z" fill="#2E7D32"/>
<path d="M80.4995 18.8252H64.5078V74.1747H80.4995V18.8252Z" fill="#FFECB3"/>
<path d="M80.4995 65.3252H64.5078V74.1747H80.4995V65.3252Z" fill="#FFC06C"/>
<path d="M107.1 99.9C114 100.8 118.3 102 120.9 104.1C124.4 106.9 124.2 110.8 119.8 111.4C117.8 111.7 97.3 111.2 93.7 111.4C79.9 112.1 76.4 114.3 70.5 114.9C67.2 115.3 59.4 115.9 56.4 116.2C53.4 116.5 25 120.5 8.90002 119.7C7.20002 119.6 7.10002 118.5 6.80002 117.4C5.80002 114.6 4.40002 105.4 4.80002 98.3C5.00002 96.1 6.00002 95.7 6.80002 94.4C10 89.7 16.4 79.7 24 75.1C27 73.3 35.7 69.4 38.7 67.1C45.3 62.3 50.9 57.4 52.9 56C56.7 53.3 63.3 56.4 60.6 64.9C58.8 70.8 49.3 75.6 47.2 81C46.2 83.7 46.2 86.8 49 89.1C63 87.7 72.5 84 75.8 82.4C79.9 80.4 83 76.6 89 76.1C92.7 75.8 94.4 78.3 93 80.1C91.6 81.9 86 86 86 86C86 86 89.8 85.3 93.5 83.4C97.5 81.3 103 79.4 107.5 80.9C111.2 82.1 110.4 85.4 108.5 86.2C105.2 87.5 97 91.2 96.2 91.5C102.2 91.1 110.2 87.7 116.9 89.9C120.2 91 121.6 94.7 118.7 96.3C115.7 97.9 107.1 99.9 107.1 99.9Z" fill="#F9DDBD"/>
<mask id="mask0_2276_886" style="mask-type:luminance" maskUnits="userSpaceOnUse" x="4" y="55" width="120" height="65">
<path d="M107.1 99.9C114 100.8 118.3 102 120.9 104.1C124.4 106.9 124.2 110.8 119.8 111.4C117.8 111.7 97.3 111.2 93.7 111.4C79.9 112.1 76.4 114.3 70.5 114.9C67.2 115.3 59.4 115.9 56.4 116.2C53.4 116.5 25 120.5 8.90002 119.7C7.20002 119.6 7.10002 118.5 6.80002 117.4C5.80002 114.6 4.40002 105.4 4.80002 98.3C5.00002 96.1 6.00002 95.7 6.80002 94.4C10 89.7 16.4 79.7 24 75.1C27 73.3 35.7 69.4 38.7 67.1C45.3 62.3 50.9 57.4 52.9 56C56.7 53.3 63.3 56.4 60.6 64.9C58.8 70.8 49.3 75.6 47.2 81C46.2 83.7 46.2 86.8 49 89.1C63 87.7 72.5 84 75.8 82.4C79.9 80.4 83 76.6 89 76.1C92.7 75.8 94.4 78.3 93 80.1C91.6 81.9 86 86 86 86C86 86 89.8 85.3 93.5 83.4C97.5 81.3 103 79.4 107.5 80.9C111.2 82.1 110.4 85.4 108.5 86.2C105.2 87.5 97 91.2 96.2 91.5C102.2 91.1 110.2 87.7 116.9 89.9C120.2 91 121.6 94.7 118.7 96.3C115.7 97.9 107.1 99.9 107.1 99.9Z" fill="white"/>
</mask>
<g mask="url(#mask0_2276_886)">
<path d="M59 63.4C60.3 60 57.2 55.3 53.7 58.4C50 61.6 40.9 70.5999 33.1 73.7999C25.3 76.9999 19.9 80.3999 13.6 89.1999C7.00001 98.5999 7.00001 100.7 4.20001 101.8C4.20001 96.3 4.20001 91.9 4.20001 91.9L19 72.2L38.5 62.2L55.6 50.7L64 55.0999L62.3 66.4L59 63.4Z" fill="#EFB682"/>
<path d="M110.3 100.2C109.5 102.2 125.2 105 118.8 110.1C116.4 112 122.3 112.5 122.3 112.5L125.6 108.6L124.4 102.3L110.3 100.2Z" fill="#EFB682"/>
<path d="M107.1 99.8999C107.1 99.8999 86.4 99.0999 84.6 98.9999C79 98.7999 74.9 97.1999 69.5 96.7999C64 96.4999 57.6 96.2999 51.6 92.2999C48.5 90.2999 47.8 89.0999 47.8 89.0999L53 83.1999C53 83.1999 91.4 73.1999 91.5 72.9999C91.6 72.8999 112.5 79.2999 112.5 79.2999L123.4 93.7999L120 97.9999L107.1 99.8999Z" fill="#EFB682"/>
</g>
<mask id="mask1_2276_886" style="mask-type:luminance" maskUnits="userSpaceOnUse" x="4" y="55" width="120" height="65">
<path d="M107.1 99.9C114 100.8 118.3 102 120.9 104.1C124.4 106.9 124.2 110.8 119.8 111.4C117.8 111.7 97.3 111.2 93.7 111.4C79.9 112.1 76.4 114.3 70.5 114.9C67.2 115.3 59.4 115.9 56.4 116.2C53.4 116.5 25 120.5 8.90002 119.7C7.20002 119.6 7.10002 118.5 6.80002 117.4C5.80002 114.6 4.40002 105.4 4.80002 98.3C5.00002 96.1 6.00002 95.7 6.80002 94.4C10 89.7 16.4 79.7 24 75.1C27 73.3 35.7 69.4 38.7 67.1C45.3 62.3 50.9 57.4 52.9 56C56.7 53.3 63.3 56.4 60.6 64.9C58.8 70.8 49.3 75.6 47.2 81C46.2 83.7 46.2 86.8 49 89.1C63 87.7 72.5 84 75.8 82.4C79.9 80.4 83 76.6 89 76.1C92.7 75.8 94.4 78.3 93 80.1C91.6 81.9 86 86 86 86C86 86 89.8 85.3 93.5 83.4C97.5 81.3 103 79.4 107.5 80.9C111.2 82.1 110.4 85.4 108.5 86.2C105.2 87.5 97 91.2 96.2 91.5C102.2 91.1 110.2 87.7 116.9 89.9C120.2 91 121.6 94.7 118.7 96.3C115.7 97.9 107.1 99.9 107.1 99.9Z" fill="white"/>
</mask>
<g mask="url(#mask1_2276_886)">
<path d="M58.8 55.4C59.6 57.2 60.4 60.9 57.7 65.2C52.7 73.3 43.9 75.4999 43.9 83.5999C43.9 89.1999 50.9 92.8999 53.4 93.6999C54.1 93.9999 54.3 93.2999 53.8 93.0999C53.3 92.7999 50.2 90.6999 49.1 89.1999C48 87.6999 46.8 84.5999 48.8 82.2999C50.8 79.9999 61.5 70.2 61.5 70.2L64.6 61.4L60.3 54.2L58.8 55.4Z" fill="#B26830"/>
<path d="M92.7 82.5999L86 85.9999C86 85.9999 72.4 90.6999 71.9 90.7999C71.5 90.8999 70.8 91.1999 70.4 90.8999C70 90.5999 69.6 90.0999 69.3 89.8999C69 89.6999 69.1 88.9999 69.9 89.0999C70.7 89.1999 71.8 89.4999 73.5 88.8999C75.2 88.2999 82.9 85.6999 85.1 83.9999C87.3 82.2999 91.5 78.8999 91.9 78.4999C92.3 78.0999 92.9 77.5999 92.2 76.2999C91.7 75.3999 92.7 75.1999 93 75.4999C93.3 75.6999 95.3 78.1999 95.3 78.1999L92.7 82.5999Z" fill="#B26830"/>
<path d="M106.5 88.2998C105.3 88.6998 97.2 91.1998 96.1 91.4998C95.1 91.6998 79.4 95.4998 78.8 95.5998C78.2 95.7998 77.4 95.8998 76.8 95.3998C76.5 95.0998 75.9 94.4998 75.6 94.2998C75.4 94.0998 75.2 93.2998 76.7 93.3998C78.2 93.4998 80.7 93.2998 83.9 92.4998C89.8 91.0998 93.1 90.3998 95.5 89.3998C101.4 86.7998 107.2 84.8998 108.7 84.0998C109.6 83.5998 109.6 82.7998 109.4 81.9998C109.1 80.9998 110.1 80.8998 110.5 81.1998C110.8 81.5998 112.1 85.2998 112.1 85.2998L106.5 88.2998Z" fill="#B26830"/>
<path d="M120.5 98.5998C119.2 98.6998 108.3 99.8998 107.1 99.8998C105.9 99.8998 99.8 99.5998 99.8 99.5998C99.8 99.5998 110.2 96.3998 114.6 95.4998C117.7 94.7998 120 93.9998 120.1 91.8998C120.2 89.7998 121.5 90.5998 121.7 90.9998C122 91.4998 120.5 98.5998 120.5 98.5998Z" fill="#B26830"/>
<path d="M123.6 107.4C123.2 108.3 122.4 109.3 120.9 109.3C119.4 109.3 91.1 109.5 86.7 109.6C78.7 109.7 75.4 111.9 65.8 112.4C55.5 112.9 44.6 116.7 5.5 116.8C6.3 119.2 7 121.8 7.2 121.7C7.4 121.5 36 121.2 36 121.2L85.9 114.5L123.3 113.9L126.1 109.3L123.6 107.4Z" fill="#B26830"/>
</g>
</svg>
